<?xml version="1.0" standalone="no"?>
<!DOCTYPE svg PUBLIC "-//W3C//DTD SVG 20010904//EN"
 "http://www.w3.org/TR/2001/REC-SVG-20010904/DTD/svg10.dtd">
<svg version="1.0" xmlns="http://www.w3.org/2000/svg"
 width="400.000000pt" height="403.000000pt" viewBox="0 0 400.000000 403.000000"
 preserveAspectRatio="xMidYMid meet">

<g transform="translate(0.000000,403.000000) scale(0.100000,-0.100000)"
fill="#FFFFFFF" stroke="none">
<path d="M2208 4013 c7 -3 16 -2 19 1 4 3 -2 6 -13 5 -11 0 -14 -3 -6 -6z"/>
<path d="M2345 3976 c61 -17 144 -45 185 -61 109 -41 323 -151 255 -131 l-20
6 20 -15 c11 -8 52 -38 92 -67 40 -29 71 -54 69 -55 -2 -2 -59 23 -127 56
-219 105 -439 171 -569 170 -56 0 -63 -1 -48 -13 10 -7 70 -28 133 -46 125
-36 291 -112 459 -210 110 -64 133 -82 69 -54 -179 79 -375 135 -557 159 -129
16 -163 14 -69 -5 104 -21 347 -107 459 -161 477 -232 805 -652 914 -1171 46
-216 13 -535 -85 -835 -133 -403 -358 -682 -679 -838 -160 -78 -365 -128 -576
-141 l-95 -6 -16 39 c-28 65 -43 160 -31 188 6 14 9 31 6 39 -6 16 32 169 52
209 9 16 26 62 39 102 33 99 171 361 202 383 13 9 68 50 121 91 64 49 130 89
193 117 53 23 114 54 135 68 47 32 50 32 59 4 6 -20 8 -17 17 20 7 32 14 42
26 40 9 -2 26 4 36 14 23 21 35 16 16 -7 -9 -11 -10 -15 0 -15 6 0 20 -10 31
-22 16 -20 18 -20 19 -5 0 27 20 20 20 -8 0 -14 1 -25 3 -25 1 0 17 4 35 9 26
8 32 7 32 -6 0 -14 2 -14 19 1 24 22 54 14 69 -17 l11 -22 7 23 c3 12 13 22
21 22 8 0 20 14 26 30 7 18 17 28 24 26 25 -10 13 34 -14 51 -16 9 -30 19 -33
21 -2 1 1 7 9 11 10 7 8 17 -9 51 -24 47 -14 78 13 40 14 -20 16 -20 25 -4 9
16 10 15 16 -4 10 -31 26 -27 39 8 9 24 15 28 34 24 27 -7 31 10 6 25 -17 10
-17 10 1 11 25 0 13 11 -27 28 -30 12 -31 12 -4 7 19 -4 26 -2 22 5 -3 5 0 10
8 10 14 0 32 28 23 37 -7 8 -56 -9 -56 -20 0 -6 -13 4 -30 23 -16 18 -27 37
-24 41 9 15 -37 30 -69 23 -48 -11 -110 -12 -129 -2 -10 5 -22 18 -29 29 -10
19 -9 20 10 9 16 -8 21 -8 21 2 0 7 6 4 13 -6 8 -11 19 -15 31 -10 18 7 17 9
-10 31 -16 12 -23 23 -16 23 7 0 10 4 7 10 -3 6 -2 10 4 10 6 0 8 6 5 14 -4
10 0 13 13 10 10 -3 36 -1 58 4 l40 8 -30 17 c-16 9 -24 16 -17 17 6 0 12 5
12 11 0 7 -14 10 -35 7 -23 -3 -36 1 -40 10 -3 7 -9 11 -14 7 -6 -3 -8 -11 -5
-18 6 -17 -44 -21 -63 -5 -11 9 -16 9 -23 -1 -5 -8 -16 -11 -30 -6 -14 5 -20
3 -16 -3 4 -7 -14 -10 -50 -10 -80 1 -114 37 -74 80 12 13 19 13 45 3 33 -14
59 -10 49 7 -4 7 -2 8 4 4 7 -4 21 -1 33 8 l21 14 -25 17 c-14 9 -24 22 -21
30 4 10 -4 11 -33 6 -32 -6 -42 -4 -63 16 -13 13 -31 23 -40 23 -8 1 -3 7 13
16 30 16 35 32 11 41 -8 3 -13 11 -10 18 3 9 -6 13 -30 12 -21 -1 -39 5 -44
13 -7 12 -12 12 -22 2 -14 -14 -66 -15 -118 -3 -26 6 -39 4 -49 -6 -7 -8 -22
-12 -32 -10 -21 6 -27 -18 -6 -26 6 -3 0 -6 -14 -6 -23 -1 -26 3 -27 31 0 18
-8 38 -18 45 -16 12 -16 13 -2 13 9 0 19 -4 23 -10 3 -5 19 -8 35 -7 l29 2
-21 22 -21 22 44 -5 c23 -3 47 -7 51 -10 4 -3 8 -1 8 5 0 6 12 8 30 5 23 -5
30 -3 30 10 0 15 -13 20 -70 29 -19 3 -16 5 10 6 29 1 32 3 17 12 -9 6 -26 8
-36 4 -13 -4 -20 0 -24 16 -4 14 -11 20 -21 16 -8 -3 -20 1 -26 8 -7 8 -16 13
-20 10 -4 -3 -11 2 -14 11 -8 22 -9 20 24 34 24 10 28 15 19 26 -6 8 -23 14
-38 14 -20 0 -29 7 -38 29 -9 25 -17 30 -49 33 -23 2 -39 9 -41 18 -4 13 -3
13 6 0 9 -13 12 -13 23 -1 9 10 10 12 1 7 -9 -5 -11 -2 -6 9 4 11 8 13 13 5 4
-6 20 -9 37 -5 20 3 35 0 43 -10 7 -8 26 -15 43 -15 29 0 30 0 12 20 -10 11
-14 20 -9 20 29 1 -28 20 -58 20 -28 0 -38 4 -38 16 0 10 -6 14 -14 11 -10 -4
-13 -1 -10 8 7 17 -38 31 -58 19 -7 -4 -10 -4 -6 1 10 11 -10 35 -30 35 -13 0
-13 -3 2 -19 22 -24 5 -38 -46 -38 -29 -1 -36 3 -35 17 1 14 7 16 37 9 32 -7
33 -7 16 7 -23 17 -66 19 -66 3 0 -7 -11 -9 -30 -5 -17 3 -30 1 -30 -4 0 -6
-11 -10 -24 -10 -14 0 -28 -4 -31 -10 -3 -5 1 -10 10 -10 9 0 14 -4 11 -9 -4
-5 2 -7 12 -4 9 2 31 -3 47 -11 17 -9 36 -16 43 -16 6 0 12 -7 12 -15 0 -10
-11 -15 -35 -15 -19 0 -35 -5 -35 -11 0 -8 -4 -8 -12 -2 -7 6 -30 13 -50 17
-21 4 -38 11 -38 16 0 14 -38 12 -42 -2 -3 -9 -15 -8 -49 4 -42 16 -82 18 -94
6 -4 -3 -32 0 -63 8 -69 16 -75 17 -68 5 4 -5 -3 -7 -14 -4 -26 7 -25 17 3 31
17 8 4 9 -53 5 -121 -10 -151 -8 -161 8 -8 12 -11 11 -23 -4 -8 -11 -17 -14
-20 -8 -6 9 -13 9 -51 1 -18 -4 -58 0 -53 5 2 3 20 6 39 9 20 2 34 9 34 17 0
14 -20 16 -60 5 -11 -2 -29 -5 -40 -6 -19 -1 -19 -1 -1 -15 17 -13 15 -14 -18
-20 -58 -11 -51 -23 10 -19 42 3 55 1 51 -8 -3 -9 -21 -12 -57 -9 -36 2 -50 0
-46 -8 4 -6 16 -11 27 -11 10 0 19 -4 19 -8 0 -5 19 -8 43 -8 36 1 42 -2 42
-19 1 -24 -12 -35 -42 -35 -25 0 -31 -15 -10 -24 6 -3 -3 -3 -20 0 -21 4 -33
2 -33 -6 0 -6 -13 -10 -32 -8 -18 2 -33 -1 -33 -7 0 -5 6 -9 15 -7 8 1 -1 -7
-20 -17 -19 -11 -39 -20 -45 -20 -5 0 1 6 15 14 18 10 20 14 8 15 -9 0 -23 -7
-32 -15 -8 -8 -21 -15 -29 -15 -8 0 -29 -5 -46 -11 -24 -9 -31 -16 -28 -30 6
-23 -11 -29 -41 -16 -16 8 -26 7 -34 -1 -7 -7 -20 -12 -30 -12 -10 0 -18 -4
-18 -8 0 -4 -14 -13 -31 -19 -26 -10 -29 -15 -20 -31 6 -11 7 -23 3 -28 -4 -5
2 -2 13 7 21 17 90 20 113 6 17 -12 15 -30 -4 -23 -10 4 -13 2 -8 -6 5 -7 0
-9 -13 -6 -13 4 -31 -3 -49 -19 -21 -18 -24 -23 -9 -17 11 4 32 8 47 9 37 4
27 -17 -19 -39 l-35 -17 23 -20 c14 -12 33 -19 47 -16 22 4 22 3 6 -14 -21
-23 -18 -23 36 -4 56 20 63 19 50 -6 -8 -14 -20 -20 -38 -18 -39 4 -68 -8 -86
-36 -15 -23 -20 -24 -93 -20 -54 4 -73 2 -63 -5 12 -8 11 -10 -6 -10 -12 0
-37 -11 -57 -24 -19 -13 -46 -27 -58 -32 -35 -11 -93 -4 -102 12 -4 8 -15 14
-23 14 -8 0 -17 7 -20 15 -9 23 -65 12 -122 -25 -64 -41 -70 -68 -14 -65 l37
2 -2 -41 c-2 -32 -1 -36 5 -16 l8 25 13 -23 c10 -18 19 -23 38 -19 19 3 27 0
30 -14 4 -14 11 -18 26 -13 17 5 19 3 13 -19 -5 -22 -3 -24 14 -20 16 4 19 2
14 -11 -4 -10 -1 -16 9 -16 8 0 17 -6 20 -14 8 -19 83 -16 78 4 -7 32 -3 63
10 71 22 14 31 10 24 -10 -9 -30 5 -70 28 -77 21 -7 31 2 67 54 11 16 19 19
30 13 12 -9 12 -12 -3 -29 -18 -19 -24 -47 -8 -38 5 3 15 -1 22 -10 11 -14 14
-13 25 8 8 13 13 32 14 44 0 11 14 31 31 43 29 21 30 22 20 3 -6 -12 -11 -23
-11 -26 0 -10 40 -7 62 5 15 8 23 8 32 -1 8 -9 6 -11 -9 -8 -17 3 -20 -3 -21
-42 -2 -86 -3 -90 -24 -90 -11 0 -28 -8 -38 -17 -10 -10 -25 -19 -32 -21 -7
-2 -31 -12 -53 -23 -42 -20 -73 -26 -47 -9 8 5 10 10 4 10 -6 0 -17 -7 -24
-16 -8 -8 -9 -14 -4 -13 5 1 18 1 29 0 15 -1 12 -5 -13 -16 -18 -8 -31 -18
-30 -22 1 -4 -6 -22 -15 -40 -21 -40 -23 -71 -4 -54 16 13 27 5 27 -21 0 -27
41 -20 56 10 9 19 13 20 17 8 8 -20 51 -21 67 -1 10 12 7 18 -19 32 -17 10
-31 22 -31 27 0 5 7 3 15 -4 8 -6 18 -9 23 -6 6 3 15 -1 22 -9 7 -8 19 -15 26
-15 8 0 14 -6 14 -13 0 -7 5 -18 11 -24 15 -15 56 3 62 28 5 20 27 26 27 8 0
-8 5 -8 15 1 12 10 15 9 15 -4 0 -12 6 -15 25 -10 20 5 25 2 25 -13 0 -23 45
-30 54 -8 3 9 12 12 22 8 16 -6 16 -42 -1 -85 -5 -11 -1 -16 12 -15 10 1 21 7
25 12 4 6 8 1 8 -9 0 -18 1 -18 19 -2 17 16 20 16 50 -1 18 -11 37 -34 47 -58
22 -55 89 -154 129 -190 33 -29 64 -103 112 -260 14 -46 42 -126 80 -230 9
-24 16 -85 17 -150 2 -60 6 -122 10 -136 5 -18 0 -45 -18 -87 -14 -34 -26 -73
-26 -87 0 -30 3 -30 -130 2 -293 70 -609 262 -773 468 l-40 50 5 -42 c3 -23
22 -79 42 -124 19 -46 34 -85 31 -87 -2 -3 -26 8 -52 24 -95 55 -215 196 -324
380 -30 51 -64 109 -77 130 l-23 39 5 -40 c4 -22 9 -51 12 -65 l6 -25 -21 25
c-11 14 -41 63 -66 110 -49 92 -49 75 -2 -60 225 -646 839 -1081 1702 -1205
l100 -15 -130 5 c-390 12 -827 170 -1154 417 -137 103 -129 98 -103 61 12 -18
48 -56 80 -84 67 -62 55 -55 -48 28 -41 33 -120 107 -175 165 -259 270 -413
583 -482 983 -26 154 -24 520 5 679 12 66 20 121 18 123 -5 5 -53 -152 -66
-217 -34 -178 -30 -461 11 -698 10 -63 17 -117 15 -119 -15 -15 -94 454 -104
612 -6 96 -10 120 -22 120 -61 0 -66 -326 -9 -610 111 -554 395 -1000 814
-1280 275 -184 594 -295 981 -340 218 -25 386 -17 603 31 906 201 1597 1090
1558 2004 -20 450 -201 906 -500 1257 -270 316 -675 561 -1113 672 -156 40
-178 39 -39 -3z m-60 -837 c10 -16 -1 -22 -26 -14 -17 6 -19 9 -8 16 19 12 26
11 34 -2z m142 -15 c-3 -3 -12 -4 -19 -1 -8 3 -5 6 6 6 11 1 17 -2 13 -5z
m-711 -23 c0 -11 -4 -17 -8 -15 -4 3 -8 1 -8 -3 0 -5 -17 -7 -37 -5 -35 4 -36
5 -14 14 14 5 31 6 38 4 7 -3 13 1 13 9 0 8 4 15 8 15 4 0 8 -9 8 -19z m634
13 c0 -8 -19 -13 -24 -6 -3 5 1 9 9 9 8 0 15 -2 15 -3z m-781 -50 c-10 -12 -9
-13 4 -8 9 3 30 -1 46 -9 24 -12 29 -12 24 -1 -9 25 34 15 51 -11 l16 -25 -34
0 c-35 0 -62 -19 -29 -21 11 0 13 -3 5 -6 -7 -3 -24 3 -38 12 -14 9 -34 15
-45 12 -16 -4 -18 1 -16 38 1 30 6 41 15 38 10 -4 10 -9 1 -19z m881 14 c0 -8
-25 -12 -44 -9 -5 1 -4 -5 4 -13 11 -14 9 -15 -19 -10 -30 6 -45 -9 -18 -19 7
-4 8 -6 1 -6 -16 -1 -37 26 -29 38 12 21 105 37 105 19z m-490 -35 c0 -8 -4
-11 -10 -8 -5 3 -10 0 -10 -7 0 -9 -3 -9 -10 2 -6 9 -10 10 -10 3 0 -6 -15
-14 -32 -18 -18 -3 -43 -11 -56 -17 -18 -9 -25 -8 -35 6 -7 10 -25 19 -40 19
-27 2 -36 20 -17 32 6 3 10 3 10 -2 0 -4 22 -6 50 -5 28 2 50 9 50 15 0 7 4 7
12 -1 7 -7 19 -12 28 -11 10 0 11 2 3 6 -30 12 -9 20 27 11 23 -6 40 -16 40
-25z m380 27 c0 -5 -4 -10 -10 -10 -5 0 -10 5 -10 10 0 6 5 10 10 10 6 0 10
-4 10 -10z m-820 -25 c0 -8 -2 -15 -4 -15 -2 0 -6 7 -10 15 -3 8 -1 15 4 15 6
0 10 -7 10 -15z m620 5 c0 -5 -5 -10 -11 -10 -5 0 -7 5 -4 10 3 6 8 10 11 10
2 0 4 -4 4 -10z m175 -30 c3 -5 -1 -10 -9 -10 -9 0 -16 5 -16 10 0 6 4 10 9
10 6 0 13 -4 16 -10z m-205 -29 c0 -10 -26 -9 -36 2 -4 4 2 7 14 7 12 0 22 -4
22 -9z m65 -1 c-11 -5 -29 -8 -40 -8 -16 0 -15 2 5 8 34 11 60 11 35 0z m282
-6 c-3 -3 -12 -4 -19 -1 -8 3 -5 6 6 6 11 1 17 -2 13 -5z m-1147 -88 c0 -3 -4
-8 -10 -11 -5 -3 -10 -1 -10 4 0 6 5 11 10 11 6 0 10 -2 10 -4z m1147 -11 c0
-8 -6 -15 -13 -15 -8 0 -11 6 -8 15 4 8 9 15 13 15 4 0 8 -7 8 -15z m86 1 c3
-8 0 -17 -7 -19 -10 -4 -12 1 -9 14 6 23 9 24 16 5z m-1273 0 c0 -2 -7 -7 -16
-10 -8 -3 -12 -2 -9 4 6 10 25 14 25 6z m16 -48 c4 -7 4 -10 0 -6 -4 3 -21 2
-37 -2 -16 -5 -31 -5 -34 0 -3 5 3 11 12 13 34 9 52 7 59 -5z m1173 -17 c9 -6
4 -8 -18 -6 -17 1 -34 5 -38 9 -10 9 40 7 56 -3z m-1175 -30 c-10 -9 -19 -23
-19 -31 0 -11 -12 -15 -52 -15 -28 1 -49 -3 -47 -7 3 -4 -1 -5 -8 -3 -22 9
-37 40 -27 56 6 10 27 14 74 12 36 0 63 3 60 7 -3 4 5 6 17 2 21 -5 21 -6 2
-21z m-104 -81 c-8 -5 -22 -9 -30 -9 -10 0 -8 3 5 9 27 12 43 12 25 0z m40 -4
c0 -2 -7 -7 -16 -10 -8 -3 -12 -2 -9 4 6 10 25 14 25 6z m95 -16 c-3 -5 -12
-10 -18 -10 -7 0 -6 4 3 10 19 12 23 12 15 0z m572 4 c-3 -3 -12 -4 -19 -1 -8
3 -5 6 6 6 11 1 17 -2 13 -5z m644 -51 c12 -22 4 -48 -12 -38 -5 4 -9 15 -9
26 0 10 -5 19 -11 19 -6 0 -9 -9 -6 -20 3 -11 1 -20 -4 -20 -14 0 -30 50 -24
71 6 18 7 18 30 1 13 -9 29 -27 36 -39z m120 -1 c-7 -2 -18 1 -23 6 -8 8 -4 9
13 5 13 -4 18 -8 10 -11z m-36 -6 c17 -12 15 -14 -19 -20 -43 -8 -49 -6 -40
18 7 20 34 21 59 2z m-175 -16 c0 -5 -2 -10 -4 -10 -3 0 -8 5 -11 10 -3 6 -1
10 4 10 6 0 11 -4 11 -10z m-350 -40 c-20 -13 -52 -8 -58 8 -3 9 2 10 22 2 22
-8 26 -7 26 7 0 14 3 14 12 5 10 -10 10 -15 -2 -22z m527 -2 c-21 -7 -32 -7
-40 1 -8 8 0 11 29 10 39 -1 39 -1 11 -11z m273 -2 c0 -9 -8 -12 -26 -8 -19 3
-25 1 -20 -7 4 -6 1 -11 -8 -11 -28 0 -17 28 12 33 15 2 30 5 35 6 4 0 7 -5 7
-13z m-1712 -28 c-3 -7 -17 -14 -31 -15 -33 -2 -35 5 -4 17 31 12 39 12 35 -2z
m382 -39 c0 7 4 10 10 6 10 -6 3 -35 -9 -35 -4 0 -13 12 -20 28 -10 25 -10 26
4 8 8 -11 15 -14 15 -7z m671 -6 c-8 -15 -10 -15 -11 -2 0 17 10 32 18 25 2
-3 -1 -13 -7 -23z m655 0 c-7 -7 -26 7 -26 19 0 6 6 6 15 -2 9 -7 13 -15 11
-17z m5 -26 c-6 -8 -8 -17 -4 -20 3 -4 2 -7 -4 -7 -17 0 -22 12 -10 26 16 17
33 18 18 1z m-411 -7 c0 -5 -2 -10 -4 -10 -3 0 -8 5 -11 10 -3 6 -1 10 4 10 6
0 11 -4 11 -10z m-1822 -20 c11 -18 10 -20 -8 -20 -13 0 -20 7 -20 20 0 11 3
20 8 20 4 0 13 -9 20 -20z m1452 16 c0 -11 -19 -15 -25 -6 -3 5 1 10 9 10 9 0
16 -2 16 -4z m-870 -15 c0 -14 -9 -17 -55 -24 l-40 -6 40 19 c47 22 55 23 55
11z m1330 -1 c0 -5 -5 -10 -11 -10 -5 0 -7 5 -4 10 3 6 8 10 11 10 2 0 4 -4 4
-10z m-1075 -10 c3 -5 1 -10 -4 -10 -6 0 -11 5 -11 10 0 6 2 10 4 10 3 0 8 -4
11 -10z m-55 -10 c0 -5 3 -9 8 -8 4 1 23 -3 42 -10 33 -13 34 -14 16 -28 -28
-20 -40 -18 -64 16 -24 33 -27 40 -12 40 6 0 10 -4 10 -10z m130 -2 c0 -10 2
-10 8 -2 5 9 11 8 21 -3 11 -12 10 -15 -8 -20 -11 -3 -18 -10 -15 -15 4 -6 -3
-5 -15 1 -21 12 -27 31 -14 44 10 11 23 8 23 -5z m1193 -3 c4 -8 2 -17 -3 -20
-6 -4 -10 3 -10 14 0 25 6 27 13 6z m-2040 -25 c-3 -11 -11 -20 -18 -20 -8 0
-21 -3 -30 -6 -13 -5 -16 -2 -13 17 2 15 12 25 28 30 32 8 39 3 33 -21z m657
11 c-10 -20 -30 -37 -30 -26 0 11 25 45 33 45 4 0 3 -9 -3 -19z m690 9 c0 -5
-4 -10 -9 -10 -6 0 -13 5 -16 10 -3 6 1 10 9 10 9 0 16 -4 16 -10z m40 6 c0
-2 -7 -6 -15 -10 -8 -3 -15 -1 -15 4 0 6 7 10 15 10 8 0 15 -2 15 -4z m-1225
-24 c-3 -3 -11 0 -18 7 -9 10 -8 11 6 5 10 -3 15 -9 12 -12z m1131 -22 c22 -9
35 -48 17 -51 -37 -6 -55 -4 -64 7 -6 8 -18 14 -25 14 -20 0 -17 8 14 35 15
13 29 19 31 14 2 -6 14 -14 27 -19z m-1416 16 c0 -3 -4 -8 -10 -11 -5 -3 -10
-1 -10 4 0 6 5 11 10 11 6 0 10 -2 10 -4z m625 -6 c3 -5 2 -10 -4 -10 -5 0
-13 5 -16 10 -3 6 -2 10 4 10 5 0 13 -4 16 -10z m1325 -15 c0 -10 13 -12 48
-10 41 3 44 2 25 -8 -12 -7 -22 -16 -23 -22 -3 -19 -21 -45 -30 -45 -16 0 -11
32 8 54 17 21 17 21 -3 4 -13 -11 -29 -15 -43 -11 -12 3 -35 0 -50 -6 -31 -13
-82 -1 -82 19 0 6 4 9 9 5 6 -3 14 2 19 11 9 16 11 15 21 -4 11 -21 13 -21 39
-5 15 10 31 23 35 30 10 16 27 8 27 -12z m677 19 c-3 -3 -12 -4 -19 -1 -8 3
-5 6 6 6 11 1 17 -2 13 -5z m-1602 -34 c3 -5 -1 -10 -9 -10 -9 0 -16 5 -16 10
0 6 4 10 9 10 6 0 13 -4 16 -10z m1382 -4 c3 -2 2 -10 -2 -16 -4 -7 -10 -8
-14 -3 -3 5 -17 14 -31 21 -24 11 -24 12 8 8 19 -3 36 -7 39 -10z m-1339 -47
c-21 -14 -38 -10 -38 7 0 8 4 12 10 9 5 -3 15 4 22 15 l13 21 3 -22 c2 -12 -2
-26 -10 -30z m430 30 c-34 -25 -35 -38 -6 -74 21 -27 21 -29 9 -209 -6 -99
-17 -206 -25 -236 l-14 -55 -2 60 c-1 33 -2 161 -1 284 1 234 4 251 45 251 19
-1 19 -2 -6 -21z m959 15 c-3 -3 -12 -4 -19 -1 -8 3 -5 6 6 6 11 1 17 -2 13
-5z m-1456 -26 c14 -26 20 -68 11 -68 -4 0 -16 12 -26 27 -11 14 -14 23 -8 19
7 -4 12 -2 12 4 0 6 -7 13 -15 16 -19 8 -19 24 0 24 8 0 20 -10 26 -22z m169
5 c0 -7 6 -13 14 -13 15 0 28 -24 19 -34 -4 -3 -19 -6 -35 -6 -26 0 -28 2 -18
20 8 14 8 20 0 20 -6 0 -15 -11 -20 -25 -11 -28 -60 -37 -60 -10 0 8 6 15 13
15 6 0 22 11 34 24 24 25 53 30 53 9z m218 -26 c23 -31 32 -136 31 -397 -1
-300 -8 -363 -28 -234 -7 43 -19 110 -28 148 -15 64 -15 70 2 102 20 37 22 31
-42 108 -23 28 -33 50 -33 73 0 20 4 32 10 28 6 -3 10 -17 10 -30 0 -37 16
-38 31 -2 8 17 13 35 12 38 -1 4 5 6 15 5 9 0 16 6 15 14 -2 29 -15 60 -27 61
-6 0 0 5 13 10 l25 10 -23 16 c-25 17 -95 22 -123 9 -14 -6 -18 -4 -18 13 0
31 30 63 47 49 10 -8 13 -7 13 5 0 14 4 14 44 1 25 -9 49 -21 54 -27z m-478
23 c0 -5 -2 -10 -4 -10 -3 0 -8 5 -11 10 -3 6 -1 10 4 10 6 0 11 -4 11 -10z
m535 -29 c3 -6 2 -29 -1 -53 l-7 -42 -14 39 c-14 40 -11 65 6 65 5 0 12 -4 16
-9z m190 -11 c7 0 15 6 18 13 2 7 8 8 13 3 5 -5 0 -14 -12 -22 -25 -17 -22
-54 7 -80 19 -17 21 -17 47 2 15 11 34 34 42 52 18 37 25 39 41 10 10 -18 9
-20 -6 -14 -11 4 -23 -2 -36 -16 -23 -28 -24 -42 -3 -62 14 -15 13 -16 -13
-17 -44 -3 -56 -5 -85 -13 -32 -9 -33 -12 -14 -32 11 -10 14 -33 11 -86 -2
-45 0 -67 5 -58 5 8 12 11 16 7 11 -11 44 23 44 45 0 11 4 17 9 13 5 -3 12 -1
16 5 12 20 21 9 17 -23 -3 -23 2 -38 17 -51 l21 -19 -35 -24 c-19 -13 -35 -32
-35 -42 0 -21 -125 -161 -143 -161 -7 0 -33 -21 -59 -46 -58 -55 -59 -51 -24
98 13 57 27 153 31 213 8 155 13 173 44 188 23 11 26 18 27 63 1 51 14 90 22
66 2 -7 10 -12 17 -12z m-1035 -20 c0 -5 -4 -10 -10 -10 -5 0 -10 5 -10 10 0
6 5 10 10 10 6 0 10 -4 10 -10z m505 -20 c-26 -11 -35 -12 -35 -2 0 4 12 8 28
9 23 1 24 1 7 -7z m1345 0 c13 -8 13 -10 -2 -10 -9 0 -20 5 -23 10 -8 13 5 13
25 0z m55 0 c3 -5 2 -10 -4 -10 -5 0 -13 5 -16 10 -3 6 -2 10 4 10 5 0 13 -4
16 -10z m-1675 -47 c0 -20 -16 -8 -23 17 -4 17 -3 19 9 9 8 -6 14 -18 14 -26z
m235 27 c3 -5 -1 -10 -9 -10 -9 0 -16 5 -16 10 0 6 4 10 9 10 6 0 13 -4 16
-10z m1132 4 c-3 -3 -12 -4 -19 -1 -8 3 -5 6 6 6 11 1 17 -2 13 -5z m-1583
-65 c-7 -11 -31 -12 -38 -1 -3 5 2 18 12 30 l17 21 7 -20 c5 -12 6 -25 2 -30z
m1266 42 c0 -12 -20 -25 -27 -18 -7 7 6 27 18 27 5 0 9 -4 9 -9z m300 5 c0 -2
-7 -6 -15 -10 -8 -3 -15 -1 -15 4 0 6 7 10 15 10 8 0 15 -2 15 -4z m-1251 -49
c0 -20 -1 -20 -12 -5 -10 15 -12 15 -23 0 -7 -9 -16 -14 -20 -10 -8 9 38 48
48 41 5 -2 8 -14 7 -26z m1635 18 c-4 -8 -16 -15 -28 -15 -20 0 -20 1 4 14 14
8 26 14 27 15 1 1 0 -6 -3 -14z m126 0 c10 -12 10 -15 -3 -15 -8 0 -17 -5 -19
-12 -5 -14 -25 -3 -38 23 -9 17 -7 19 18 19 16 0 35 -7 42 -15z m-1955 -13 c9
2 23 -6 31 -18 13 -19 12 -22 -13 -33 -26 -10 -27 -10 -9 4 18 14 16 15 -30
15 -32 0 -44 -3 -35 -9 10 -7 7 -9 -12 -8 -24 2 -24 3 -9 19 9 9 23 24 31 33
10 12 16 14 21 5 4 -6 15 -10 25 -8z m1885 -11 c-1 -14 -2 -14 -14 1 -7 10
-17 14 -21 10 -5 -4 -5 -2 -1 5 9 16 36 5 36 -16z m-1789 -3 c11 -11 17 -23
14 -26 -8 -9 -34 7 -45 27 -15 29 7 28 31 -1z m213 -7 c4 -5 -1 -8 -9 -7 -21
3 -31 16 -12 16 9 0 18 -4 21 -9z m-26 -38 c3 -21 2 -22 -27 -7 -38 19 -40 36
-3 32 19 -2 28 -9 30 -25z m712 -19 c0 -17 -9 -18 -42 -2 -25 12 -25 12 -4 24
23 12 46 1 46 -22z m-902 -1 c-3 -19 -36 -48 -45 -40 -10 10 8 46 25 50 9 3
18 5 20 6 2 0 2 -7 0 -16z m251 -73 c5 0 11 -9 14 -21 l6 -21 22 21 c12 11 26
18 30 15 5 -3 6 3 2 12 -4 12 -3 15 5 10 11 -6 17 18 13 46 0 4 5 5 13 2 15
-6 38 -63 54 -139 6 -27 14 -124 17 -215 4 -91 11 -181 16 -200 54 -214 66
-337 36 -367 -24 -24 -41 -4 -67 80 -13 39 -31 88 -40 107 -28 56 -71 190 -72
221 -1 16 -7 34 -15 41 -20 16 -38 63 -67 174 -29 106 -27 151 5 131 23 -14
36 -3 19 18 -9 11 -9 15 -1 15 7 0 9 5 6 10 -3 6 -15 10 -26 10 -10 0 -18 6
-16 12 1 7 -8 14 -20 16 -22 3 -33 32 -13 32 14 0 12 37 -2 44 -7 2 -4 4 7 3
11 -2 26 -6 33 -10 7 -5 15 -2 20 10 5 13 8 8 10 -19 2 -21 7 -38 11 -38z
m-229 45 c0 -8 -4 -15 -10 -15 -5 0 -7 7 -4 15 4 8 8 15 10 15 2 0 4 -7 4 -15z
m1735 6 c18 -7 17 -9 -12 -24 -37 -20 -43 -21 -43 -7 0 6 10 10 21 10 18 0 19
2 9 15 -14 16 -6 18 25 6z m-1868 -16 c2 -6 -10 -16 -27 -22 -26 -10 -30 -9
-30 6 0 10 2 20 5 23 9 9 48 4 52 -7z m48 5 c-3 -5 -10 -10 -16 -10 -5 0 -9 5
-9 10 0 6 7 10 16 10 8 0 12 -4 9 -10z m-335 -10 c0 -5 -7 -10 -16 -10 -8 0
-12 5 -9 10 3 6 10 10 16 10 5 0 9 -4 9 -10z m879 -44 c29 -37 40 -66 24 -66
-15 1 -63 73 -63 93 0 23 -2 24 39 -27z m-589 14 c0 -5 -4 -10 -10 -10 -5 0
-10 5 -10 10 0 6 5 10 10 10 6 0 10 -4 10 -10z m150 0 c0 -5 -2 -10 -4 -10 -3
0 -8 5 -11 10 -3 6 -1 10 4 10 6 0 11 -4 11 -10z m1607 -32 c-35 -10 -49 -9
-42 3 11 17 49 28 57 15 4 -6 -2 -14 -15 -18z m-653 6 c9 -24 2 -26 -12 -4 -7
11 -8 20 -3 20 5 0 12 -7 15 -16z m-1497 -19 c-4 -8 -12 -15 -19 -14 -10 0
-10 2 0 6 6 2 12 12 12 21 0 8 3 13 6 9 4 -3 4 -13 1 -22z m258 4 c11 -17 -1
-21 -15 -4 -8 9 -8 15 -2 15 6 0 14 -5 17 -11z m2035 -25 c0 -3 -7 -1 -15 6
-8 7 -15 17 -15 22 0 5 7 3 15 -6 8 -8 15 -18 15 -22z m-1883 10 c15 -14 14
-16 -7 -12 -13 1 -25 9 -28 16 -5 17 16 15 35 -4z m1133 7 c0 -5 -7 -12 -16
-15 -14 -5 -15 -4 -4 9 14 17 20 19 20 6z m-1190 -11 c0 -5 -5 -10 -11 -10 -5
0 -7 5 -4 10 3 6 8 10 11 10 2 0 4 -4 4 -10z m-308 -22 c-7 -7 -12 -8 -12 -2
0 14 12 26 19 19 2 -3 -1 -11 -7 -17z m918 2 c26 -49 82 -443 70 -496 -5 -20
-10 -38 -13 -40 -12 -13 -57 279 -57 376 0 58 -4 122 -9 143 -10 41 -7 47 9
17z m1080 -32 c0 -18 -26 5 -27 23 -2 21 -1 21 12 3 8 -11 15 -22 15 -26z m50
32 c0 -5 -5 -10 -11 -10 -5 0 -7 5 -4 10 3 6 8 10 11 10 2 0 4 -4 4 -10z m65
-20 c-8 -14 8 -13 22 1 8 8 14 5 23 -11 10 -18 9 -24 -7 -35 -15 -12 -20 -12
-30 3 -7 9 -17 22 -22 28 -10 12 -4 24 11 24 5 0 6 -4 3 -10z m-635 -12 c0
-17 -74 -78 -94 -78 -9 0 -16 -4 -16 -9 0 -10 -181 -231 -229 -279 -19 -18
-35 -31 -38 -28 -11 11 60 128 94 153 73 56 149 132 178 181 27 45 57 68 93
71 6 1 12 -5 12 -11z m140 -9 c0 -6 -4 -7 -10 -4 -5 3 -10 11 -10 16 0 6 5 7
10 4 6 -3 10 -11 10 -16z m210 -8 c-5 -11 -10 -24 -10 -30 0 -14 47 -14 55 -1
9 15 25 12 25 -5 0 -9 6 -12 16 -8 11 4 15 2 12 -7 -4 -13 -231 -120 -256
-120 -9 0 -25 -9 -37 -20 -35 -33 -179 -130 -192 -130 -26 0 -12 34 55 132 37
56 71 109 77 119 12 24 34 24 50 2 11 -15 15 -15 30 -3 24 20 54 20 60 -1 8
-24 41 -20 67 9 19 19 20 26 10 42 -15 24 -15 33 -2 25 5 -3 18 -1 27 4 24 14
25 14 13 -8z m200 -3 c0 -16 -3 -19 -11 -11 -6 6 -8 16 -5 22 11 17 16 13 16
-11z m215 6 c13 17 15 18 21 2 4 -11 13 -15 25 -11 11 4 19 2 19 -4 0 -6 -4
-11 -10 -11 -5 0 -10 -8 -10 -19 0 -10 -7 -24 -15 -31 -12 -10 -15 -10 -15 3
0 8 -16 27 -35 41 -20 15 -33 32 -29 37 3 6 12 3 20 -8 13 -17 15 -17 29 1z
m-1625 -30 c0 -19 -31 -15 -38 5 -3 8 0 11 7 7 6 -4 11 -2 11 4 0 6 5 8 10 5
6 -3 10 -13 10 -21z m-109 -57 c-8 -8 -11 -4 -11 14 0 33 14 47 18 19 2 -12
-1 -27 -7 -33z m1031 35 c3 -11 -18 -48 -56 -99 -33 -45 -62 -80 -64 -78 -2 2
10 30 27 62 17 32 37 75 45 96 16 39 40 49 48 19z m-112 -51 c-6 -12 -8 -27
-4 -33 5 -7 3 -8 -6 -3 -10 6 -12 4 -7 -8 3 -10 2 -17 -4 -17 -6 0 -7 -4 -4
-10 3 -5 2 -10 -3 -10 -10 0 -36 -50 -95 -185 -23 -55 -69 -145 -101 -199 -39
-66 -64 -123 -76 -171 -27 -110 -36 -120 -44 -49 -20 174 2 286 74 375 25 32
88 116 140 187 82 112 125 158 138 147 2 -2 -1 -13 -8 -24z m-814 -17 c6 27 8
28 20 11 8 -11 14 -28 14 -39 0 -12 9 -41 20 -65 11 -24 22 -54 24 -67 4 -21
2 -23 -14 -14 -29 16 -109 133 -117 171 l-6 34 25 -30 26 -30 8 29z m785 -187
c-6 -19 -24 -54 -39 -78 -15 -24 -41 -75 -56 -114 -38 -90 -106 -221 -106
-202 0 15 62 152 126 281 19 38 34 74 34 80 0 16 40 79 47 73 3 -3 0 -21 -6
-40z m1455 -95 c-80 -317 -267 -618 -509 -821 -173 -144 -392 -264 -614 -335
-147 -47 -164 -45 -35 4 567 216 972 629 1148 1172 15 48 30 86 32 84 2 -2 -8
-49 -22 -104z m-3206 -806 c84 -88 230 -210 344 -288 117 -79 128 -90 41 -44
-186 100 -377 273 -510 461 -23 33 -21 31 16 -10 24 -27 73 -81 109 -119z
m361 -183 c13 -16 12 -17 -3 -4 -10 7 -18 15 -18 17 0 8 8 3 21 -13z m1576
-209 c-3 -3 -12 -4 -19 -1 -8 3 -5 6 6 6 11 1 17 -2 13 -5z"/>
<path d="M1176 2791 c-3 -5 10 -9 29 -8 21 1 30 4 22 9 -16 10 -45 10 -51 -1z"/>
<path d="M1275 3839 c-354 -142 -673 -417 -884 -762 -72 -119 -191 -369 -191
-404 0 -3 25 42 55 100 246 478 629 864 1060 1068 104 50 86 49 -40 -2z"/>
<path d="M743 3163 c-135 -133 -246 -314 -311 -508 -45 -135 -48 -175 -4 -55
74 204 182 386 331 558 39 45 69 82 67 82 -2 0 -40 -35 -83 -77z"/>
<path d="M1536 3151 c-4 -5 3 -7 14 -4 23 6 26 13 6 13 -8 0 -17 -4 -20 -9z"/>
<path d="M231 2273 c-18 -86 -25 -306 -13 -399 13 -94 42 -227 48 -221 3 2 -3
60 -12 128 -12 91 -15 180 -12 337 2 116 3 212 2 212 -1 0 -7 -26 -13 -57z"/>
<path d="M1015 2120 c-3 -5 1 -10 9 -10 8 0 18 5 21 10 3 6 -1 10 -9 10 -8 0
-18 -4 -21 -10z"/>
</g>
</svg>
